<svg aria-hidden="true" style="position: absolute; width: 0; height: 0; overflow: hidden;" version="1.1" xmlns="http://www.w3.org/2000/svg" xmlns:xlink="http://www.w3.org/1999/xlink">
    <defs>
        <symbol id="icon-arrow" viewBox="0 0 19 32">
            <path d="M0.977 16.011c0.009-0.31 0.071-0.593 0.186-0.85s0.292-0.505 0.531-0.744l13.308-12.883c0.381-0.381 0.85-0.571 1.408-0.571 0.372 0 0.708 0.089 1.009 0.266 0.31 0.177 0.553 0.416 0.731 0.717 0.186 0.301 0.279 0.637 0.279 1.009 0 0.549-0.208 1.032-0.624 1.448l-12.033 11.595 12.033 11.608c0.416 0.425 0.624 0.908 0.624 1.448 0 0.381-0.093 0.722-0.279 1.023-0.177 0.301-0.421 0.54-0.731 0.717-0.301 0.186-0.637 0.279-1.009 0.279-0.558 0-1.027-0.195-1.408-0.584l-13.308-12.883c-0.248-0.239-0.429-0.487-0.545-0.744-0.115-0.266-0.173-0.549-0.173-0.85z"></path>
        </symbol>

        <symbol id="icon-gun" viewBox="0 0 38 32">
            <path d="M9.6 24.089c0 0.398-0.162 0.758-0.488 1.081s-0.688 0.485-1.088 0.485c-0.45 0-0.838-0.162-1.162-0.485s-0.487-0.684-0.487-1.081c0-0.448 0.162-0.833 0.487-1.156s0.713-0.485 1.162-0.485c0.4 0 0.762 0.161 1.088 0.485s0.488 0.708 0.488 1.156zM35.175 1.791h-20.775v0.149c-2.1 0.547-3.7 1.566-4.8 3.058-0.4 0-0.738-0.261-1.012-0.783s-0.438-1.056-0.488-1.603l-0.075-0.82h-3.225c0 1.193 0.275 2.411 0.825 3.654s1.4 2.088 2.55 2.536c0 0.099-0.025 0.249-0.075 0.447s-0.075 0.323-0.075 0.373c-2.3 1.044-3.9 2.784-4.8 5.22-0.65 1.79-1.25 3.766-1.8 5.929s-0.925 3.841-1.125 5.034c-0.2 1.193-0.3 1.889-0.3 2.088 0 1.492 0.325 2.61 0.975 3.356 0.75 1.044 2.025 1.566 3.825 1.566h4.8c1.45 0 2.613-0.435 3.488-1.305s1.313-2.026 1.313-3.468c0-1.193 0.1-2.784 0.3-4.773h2.925c1.45 0 2.75-0.448 3.9-1.342s1.925-2.038 2.325-3.431h1.725c2.55 0 4.375-1.044 5.475-3.132h3.375c0.5 0 0.75-0.273 0.75-0.82s-0.25-0.82-0.75-0.82h-2.55c0-0.149 0.025-0.41 0.075-0.783s0.075-0.634 0.075-0.783h6.375v-11.112h-1.575c-1.1 0-1.65 0.522-1.65 1.566zM14.4 5.296v8.875c-0.95-0.298-1.725-0.858-2.325-1.678s-0.9-1.728-0.9-2.722c0-1.044 0.3-1.976 0.9-2.797s1.375-1.38 2.325-1.678zM9.6 28.862h-4.8c-0.75 0-1.225-0.124-1.425-0.373-0.1-0.199-0.15-0.572-0.15-1.119 0.6-4.425 1.6-8.551 3-12.38 0.5-1.243 1.2-2.188 2.1-2.834 0.6 2.038 1.925 3.58 3.975 4.624-0.75 4.673-1.125 8.154-1.125 10.441 0 1.094-0.525 1.641-1.575 1.641zM17.625 19.316h-2.4c0.2-0.895 0.3-1.442 0.3-1.641h4.8c-0.5 1.094-1.4 1.641-2.7 1.641zM25.575 14.544h-7.95v-9.546h11.175v1.566h-7.2c-0.55 0-0.825 0.273-0.825 0.82 0 0.497 0.275 0.746 0.825 0.746h7.2v1.641h-7.2c-0.55 0-0.825 0.249-0.825 0.746 0 0.547 0.275 0.82 0.825 0.82h7.2c0 0.845-0.312 1.591-0.937 2.237s-1.388 0.97-2.288 0.97zM35.175 8.13h-3.15v-3.132h3.15v3.132z"></path>
        </symbol>

        <symbol id="icon-moon" viewBox="0 0 32 32">
            <path d="M30.057 19.177c1.152-0.408 2.264 0.702 1.857 1.855-0.827 2.347-2.102 4.43-3.828 6.15-6.426 6.426-16.841 6.425-23.266 0-6.427-6.424-6.427-16.841-0-23.268 1.723-1.723 3.806-2.999 6.148-3.827 1.153-0.408 2.264 0.703 1.856 1.856-1.736 4.905-0.573 10.375 3.142 14.093 3.715 3.714 9.188 4.878 14.090 3.142zM13.91 18.092c-3.747-3.749-5.359-8.963-4.6-14.026-0.887 0.537-1.701 1.172-2.433 1.904-5.291 5.291-5.291 13.866 0 19.154 5.289 5.289 13.863 5.29 19.154-0.002 0.733-0.731 1.368-1.544 1.905-2.431-5.063 0.76-10.28-0.853-14.027-4.599z"></path>
        </symbol>

        <symbol id="icon-calendar" viewBox="0 0 32 32">
            <path d="M9.778 24.889c0.741 0 1.371-0.26 1.89-0.779s0.778-1.148 0.777-1.888c0-0.741-0.26-1.371-0.779-1.89s-1.148-0.778-1.888-0.777c-0.741 0-1.371 0.26-1.89 0.779s-0.778 1.148-0.777 1.888c0 0.741 0.26 1.371 0.779 1.89s1.148 0.778 1.888 0.777zM9.778 12.444c0.741 0 1.371-0.26 1.89-0.779s0.778-1.148 0.777-1.888c0-0.741-0.26-1.371-0.779-1.89s-1.148-0.778-1.888-0.777c-0.741 0-1.371 0.26-1.89 0.779s-0.778 1.148-0.777 1.888c0 0.741 0.26 1.371 0.779 1.89s1.148 0.778 1.888 0.777zM22.222 24.889c0.741 0 1.371-0.26 1.89-0.779s0.778-1.148 0.777-1.888c0-0.741-0.26-1.371-0.779-1.89s-1.148-0.778-1.888-0.777c-0.741 0-1.371 0.26-1.89 0.779s-0.778 1.148-0.777 1.888c0 0.741 0.26 1.371 0.779 1.89s1.148 0.778 1.888 0.777zM22.222 12.444c0.741 0 1.371-0.26 1.89-0.779s0.778-1.148 0.777-1.888c0-0.741-0.26-1.371-0.779-1.89s-1.148-0.778-1.888-0.777c-0.741 0-1.371 0.26-1.89 0.779s-0.778 1.148-0.777 1.888c0 0.741 0.26 1.371 0.779 1.89s1.148 0.778 1.888 0.777zM3.556 32c-0.978 0-1.815-0.348-2.512-1.045s-1.045-1.534-1.044-2.51v-24.889c0-0.978 0.348-1.815 1.045-2.512s1.534-1.045 2.51-1.044h24.889c0.978 0 1.815 0.348 2.512 1.045s1.045 1.534 1.044 2.51v24.889c0 0.978-0.348 1.815-1.045 2.512s-1.534 1.045-2.51 1.044h-24.889zM3.556 28.444h24.889v-24.889h-24.889v24.889z"></path>
        </symbol>

        <symbol id="icon-heart" viewBox="0 0 37 32">
            <path d="M10.442 0c-5.767 0-10.442 4.675-10.442 10.442 0 5.78 2.312 8.674 11.989 16.2l4.446 3.458c1.156 0.899 2.774 0.899 3.929 0l4.446-3.458c9.677-7.527 11.989-10.42 11.989-16.2 0-5.767-4.675-10.442-10.442-10.442-2.994 0-5.66 1.361-7.958 3.978-2.297-2.618-4.963-3.978-7.958-3.978zM10.442 3.2c2.431 0 4.622 1.372 6.642 4.293l0.329 0.476c0.377 0.545 1.124 0.681 1.67 0.304 0.119-0.082 0.222-0.185 0.304-0.304l0.329-0.476c2.020-2.921 4.211-4.293 6.642-4.293 4 0 7.242 3.242 7.242 7.242 0 4.448-1.82 6.726-10.754 13.675l-4.446 3.458-4.446-3.458c-8.934-6.949-10.754-9.226-10.754-13.675 0-4 3.242-7.242 7.242-7.242z"></path>
        </symbol>
    </defs>
</svg>
